# xmcd
#
# Track frame offsets: 
#        150
#        21824
#        37153
#        57749
#        74477
#        87758
#        110745
#        127933
#        140095
#        155093
#        169529
#        189480
#        200452
#        215289
#        230662
#        249780
#        266850
#        284781
#        302776
#        314624
#        336103
#
# Disc length: 4704 seconds
#
# Revision: 1
# Processed by: cddbd v1.5.2PL0 Copyright (c) Steve Scherf et al.
# Submitted via: ExactAudioCopy v1.3
#
DISCID=4b125e15
DTITLE=Rodney Crowell - Small Worlds - The Crowell Collection
DYEAR=2002
DGENRE=Country
TTITLE0=I Ain't Livin' Long Like This
TTITLE1=Leavin' Louisiana In The Broad Daylight
TTITLE2=Shame On The Moon
TTITLE3=Stars On The Water
TTITLE4=Victim Or A Fool
TTITLE5='Til I Gain Control
TTITLE6=When I'm Free Again
TTITLE7=The Best I Can
TTITLE8=It's Such A Small World
TTITLE9=She's Crazy For Leavin'
TTITLE10=After All This Time
TTITLE11=Above And Beyond
TTITLE12=I Couldn't Leave You If I Tried
TTITLE13=If Looks Could Kill
TTITLE14=Many A Long And Lonesome Highway
TTITLE15=Lovin' All Night
TTITLE16=What Kind Of Love
TTITLE17=Let The Picture Paint Itself
TTITLE18=The Best Years of Our Lives
TTITLE19=Jewel Of The South
TTITLE20=Please Remember Me
EXTD=
EXTT0=
EXTT1=
EXTT2=
EXTT3=
EXTT4=
EXTT5=
EXTT6=
EXTT7=
EXTT8=
EXTT9=
EXTT10=
EXTT11=
EXTT12=
EXTT13=
EXTT14=
EXTT15=
EXTT16=
EXTT17=
EXTT18=
EXTT19=
EXTT20=
PLAYORDER=
